HIERARCHY
ROOT hip
{
  OFFSET 0 0 0
  CHANNELS 6 Xposition Yposition Zposition Zrotation Yrotation Xrotation
  JOINT abdomen
  {
    OFFSET 0 20.6881 -0.73152
    CHANNELS 3 Zrotation Xrotation Yrotation
    JOINT chest
    {
      OFFSET 0 11.7043 -0.48768
      CHANNELS 3 Zrotation Xrotation Yrotation
      JOINT neck
      {
        OFFSET 0 22.1894 -2.19456
        CHANNELS 3 Zrotation Xrotation Yrotation
        JOINT head
        {
          OFFSET -0.24384 7.07133 1.2192
          CHANNELS 3 Zrotation Xrotation Yrotation
          JOINT leftEye
          {
            OFFSET 4.14528 8.04674 8.04672
            CHANNELS 3 Zrotation Xrotation Yrotation
            End Site
            {
              OFFSET 1 0 0
            }
          }
          JOINT rightEye
          {
            OFFSET -3.6576 8.04674 8.04672
            CHANNELS 3 Zrotation Xrotation Yrotation
            End Site
            {
              OFFSET 1 0 0
            }
          }
        }
      }
      JOINT rCollar
      {
        OFFSET -2.68224 19.2634 -4.8768
        CHANNELS 3 Zrotation Xrotation Yrotation
        JOINT rShldr
        {
          OFFSET -8.77824 -1.95073 1.46304
          CHANNELS 3 Zrotation Xrotation Yrotation
          JOINT rForeArm
          {
            OFFSET -28.1742 -1.7115 0.48768
            CHANNELS 3 Zrotation Xrotation Yrotation
            JOINT rHand
            {
              OFFSET -22.5879 0.773209 7.07136
              CHANNELS 3 Zrotation Xrotation Yrotation
              JOINT rThumb1
              {
                OFFSET -1.2192 -0.487915 3.41376
                CHANNELS 3 Zrotation Xrotation Yrotation
                JOINT rThumb2
                {
                  OFFSET -3.37035 -0.52449 3.41376
                  CHANNELS 3 Zrotation Xrotation Yrotation
                  End Site
                  {
                    OFFSET -1.78271 -1.18214 1.43049
                  }
                }
              }
              JOINT rIndex1
              {
                OFFSET -7.75947 0.938293 5.60832
                CHANNELS 3 Zrotation Xrotation Yrotation
                JOINT rIndex2
                {
                  OFFSET -2.54057 -0.884171 1.56538
                  CHANNELS 3 Zrotation Xrotation Yrotation
                  End Site
                  {
                    OFFSET -1.62519 -0.234802 1.16502
                  }
                }
              }
              JOINT rMid1
              {
                OFFSET -8.24714 1.18213 3.41376
                CHANNELS 3 Zrotation Xrotation Yrotation
                JOINT rMid2
                {
                  OFFSET -3.10165 -0.590103 1.0647
                  CHANNELS 3 Zrotation Xrotation Yrotation
                  End Site
                  {
                    OFFSET -2.48547 -0.328903 0.83742
                  }
                }
              }
              JOINT rRing1
              {
                OFFSET -8.82822 0.546677 1.51678
                CHANNELS 3 Zrotation Xrotation Yrotation
                JOINT rRing2
                {
                  OFFSET -2.60934 -0.819778 -0.0198488
                  CHANNELS 3 Zrotation Xrotation Yrotation
                  End Site
                  {
                    OFFSET -2.33842 -0.294052 0.168128
                  }
                }
              }
              JOINT rPinky1
              {
                OFFSET -8.27202 -0.0477905 -0.4584
                CHANNELS 3 Zrotation Xrotation Yrotation
                JOINT rPinky2
                {
                  OFFSET -1.82734 -0.647385 -0.700984
                  CHANNELS 3 Zrotation Xrotation Yrotation
                  End Site
                  {
                    OFFSET -1.69225 -0.51767 -0.607171
                  }
                }
              }
            }
          }
        }
      }
      JOINT lCollar
      {
        OFFSET 2.68224 19.2634 -4.8768
        CHANNELS 3 Zrotation Xrotation Yrotation
        JOINT lShldr
        {
          OFFSET 8.77824 -1.95073 1.46304
          CHANNELS 3 Zrotation Xrotation Yrotation
          JOINT lForeArm
          {
            OFFSET 28.1742 -1.7115 0.48768
            CHANNELS 3 Zrotation Xrotation Yrotation
            JOINT lHand
            {
              OFFSET 22.5879 0.773209 7.07136
              CHANNELS 3 Zrotation Xrotation Yrotation
              JOINT lThumb1
              {
                OFFSET 1.2192 -0.487915 3.41376
                CHANNELS 3 Zrotation Xrotation Yrotation
                JOINT lThumb2
                {
                  OFFSET 3.37035 -0.52449 3.41376
                  CHANNELS 3 Zrotation Xrotation Yrotation
                  End Site
                  {
                    OFFSET 1.78271 -1.18214 1.43049
                  }
                }
              }
              JOINT lIndex1
              {
                OFFSET 7.75947 0.938293 5.60832
                CHANNELS 3 Zrotation Xrotation Yrotation
                JOINT lIndex2
                {
                  OFFSET 2.54057 -0.884171 1.56538
                  CHANNELS 3 Zrotation Xrotation Yrotation
                  End Site
                  {
                    OFFSET 1.62519 -0.234802 1.16502
                  }
                }
              }
              JOINT lMid1
              {
                OFFSET 8.24714 1.18213 3.41376
                CHANNELS 3 Zrotation Xrotation Yrotation
                JOINT lMid2
                {
                  OFFSET 3.10165 -0.590103 1.0647
                  CHANNELS 3 Zrotation Xrotation Yrotation
                  End Site
                  {
                    OFFSET 2.48547 -0.328903 0.83742
                  }
                }
              }
              JOINT lRing1
              {
                OFFSET 8.82822 0.546677 1.51678
                CHANNELS 3 Zrotation Xrotation Yrotation
                JOINT lRing2
                {
                  OFFSET 2.60934 -0.819778 -0.0198488
                  CHANNELS 3 Zrotation Xrotation Yrotation
                  End Site
                  {
                    OFFSET 2.33842 -0.294052 0.168128
                  }
                }
              }
              JOINT lPinky1
              {
                OFFSET 8.27202 -0.0477905 -0.4584
                CHANNELS 3 Zrotation Xrotation Yrotation
                JOINT lPinky2
                {
                  OFFSET 1.82734 -0.647385 -0.700984
                  CHANNELS 3 Zrotation Xrotation Yrotation
                  End Site
                  {
                    OFFSET 1.69225 -0.51767 -0.607171
                  }
                }
              }
            }
          }
        }
      }
    }
  }
  JOINT rButtock
  {
    OFFSET -8.77824 4.35084 1.2192
    CHANNELS 3 Zrotation Xrotation Yrotation
    JOINT rThigh
    {
      OFFSET 0 -1.70687 -2.19456
      CHANNELS 3 Zrotation Xrotation Yrotation
      JOINT rShin
      {
        OFFSET 0 -36.8199 0.73152
        CHANNELS 3 Zrotation Xrotation Yrotation
        JOINT rFoot
        {
          OFFSET 0.73152 -45.1104 -5.12064
          CHANNELS 3 Zrotation Xrotation Yrotation
          End Site
          {
            OFFSET -1.1221 -3.69964 12.103
          }
        }
      }
    }
  }
  JOINT lButtock
  {
    OFFSET 8.77824 4.35084 1.2192
    CHANNELS 3 Zrotation Xrotation Yrotation
    JOINT lThigh
    {
      OFFSET 0 -1.70687 -2.19456
      CHANNELS 3 Zrotation Xrotation Yrotation
      JOINT lShin
      {
        OFFSET 0 -36.8199 0.73152
        CHANNELS 3 Zrotation Xrotation Yrotation
        JOINT lFoot
        {
          OFFSET -0.73152 -45.1104 -5.12064
          CHANNELS 3 Zrotation Xrotation Yrotation
          End Site
          {
            OFFSET 1.1221 -3.69964 12.103
          }
        }
      }
    }
  }
}
MOTION
Frames:	4
Frame Time:	0.03333
0.0 0.0 0.0 0.0 0.0 0.0 0.0 0.0 0.0 0.0 0.0 0.0 0.0 0.0 0.0 0.0 0.0 0.0 0.0 0.0 0.0 0.0 0.0 0.0 0.0 0.0 0.0 0.0 0.0 0.0 0.0 0.0 0.0 0.0 0.0 0.0 0.0 0.0 0.0 0.0 0.0 0.0 0.0 0.0 0.0 0.0 0.0 0.0 0.0 0.0 0.0 0.0 0.0 0.0 0.0 0.0 0.0 0.0 0.0 0.0 0.0 0.0 0.0 0.0 0.0 0.0 0.0 0.0 0.0 0.0 0.0 0.0 0.0 0.0 0.0 0.0 0.0 0.0 0.0 0.0 0.0 0.0 0.0 0.0 0.0 0.0 0.0 0.0 0.0 0.0 0.0 0.0 0.0 0.0 0.0 0.0 0.0 0.0 0.0 0.0 0.0 0.0 0.0 0.0 0.0 0.0 0.0 0.0 0.0 0.0 0.0 0.0 0.0 0.0 0.0 0.0 0.0 0.0 0.0 0.0 0.0 0.0 0.0 0.0 0.0 0.0 0.0 0.0 0.0 0.0 0.0 0.0
0.0362 16.897000000000002 0.0111 -1.876012 69.127166 -2.587644 0.512657 3.742978 -0.0 14.141522 -18.442497 126.351951 -156.823915 5.345255 169.670618 137.178632 52.094005 -62.256271 -17.523233 -2.646985 17.050676 -19.021547 -3.064687 18.143922 -44.657248 -35.859803 -172.863589 13.700904 0.958408 9.557295 -4.48226 83.001368 171.598575 4.412681 -10.935999 -135.370907 67.974956 71.580422 -112.210882 -81.164767 19.295536 52.385182 17.99736 64.789857 -55.941121 6.004587 8.714086 -2.454715 31.241234 61.447946 -54.296722 2.693308 0.975928 0.858386 30.910295 73.927522 -32.635258 -153.928914 0.359443 175.521768 -19.65768 -4.454786 -8.621625 -19.781303 -37.528219 -21.780656 93.070666 -26.672788 -176.477428 -17.366011 -28.292623 -10.664286 2.730846 -46.085579 -156.681701 -73.113843 -72.603069 97.863847 8.706254 11.30385 36.868506 164.182367 -39.70087 -113.365459 125.438388 -70.574892 156.458249 -128.585758 -66.96934 -72.008082 90.284782 -79.939919 108.947745 18.058638 38.746931 -17.195779 128.870553 -68.186479 130.499802 153.772251 -0.308103 -174.859923 32.512938 -51.140399 3.708771 24.469603 -41.17784 25.278214 43.009167 30.640025 103.007821 -20.052691 46.931851 26.548801 5.732149 -7.629966 37.180135 50.298135 -47.709321 -132.617493 7.328422 58.878751 -180.0 18.393438 59.537803 14.616482 1.280923 -2.515973 108.116284 139.122904 -39.081093 -74.893071
0.12669999999999998 26.5723 0.1386 -2.96491 43.348979 -2.152787 -3.481667 17.725667 0.0 8.781286 -52.913227 43.377914 -163.080562 2.73914 115.353134 133.561169 -22.657999 60.57117 -61.593855 -2.668727 4.47591 -54.177036 -5.066937 9.888401 -62.594547 -30.994305 -136.166771 129.051668 66.19481 -121.374393 61.182118 61.029111 67.20908 20.107233 43.65238 -41.239472 -6.415685 37.20509 -4.366704 -102.666303 -47.054087 120.019635 -63.934172 -61.393491 -161.149912 -177.721671 56.842375 117.023072 -22.181988 -48.445721 -126.440838 141.481372 -52.446389 91.553097 66.882517 20.646419 -33.228301 -133.613952 -85.04735 -170.994326 174.892593 60.450635 -78.701894 4.610559 -27.037783 27.013677 57.714708 76.665655 -90.601295 149.351188 -29.37582 -153.784724 35.754957 2.892902 -164.736926 -109.808224 -40.945711 -50.342058 114.417077 41.470903 -82.476768 -30.908055 -2.658211 -68.224369 -81.198202 84.708331 56.183625 155.032348 -40.335071 -111.20781 97.436313 -12.776046 158.428615 164.487948 -62.433121 -140.79197 -41.453667 35.204898 35.087728 12.152177 60.397689 -32.277087 56.995741 -21.804652 92.701776 144.042524 32.400008 156.026481 -16.495915 11.284039 25.20246 50.106604 -55.747546 55.357299 69.092206 39.249477 42.090371 98.157702 26.298293 145.129693 -60.49973 53.785179 -47.975842 80.038137 -28.303267 -0.0 -82.643796 36.384419 -125.473636 -74.020642 36.635029 -59.256076
0.35040000000000004 26.5363 0.5682 -2.015089 35.220486 -0.49836 -1.299905 4.781845 -164.77278 3.271075 36.771947 -159.921961 -176.127531 0.247251 -115.862993 -110.693794 -40.587237 -141.540095 -48.779203 7.007254 -15.381112 -52.99918 8.981906 -17.905072 -8.367541 -47.871366 -88.73447 17.869891 -13.750036 -21.537334 -97.332757 44.649398 -129.668626 49.398962 -10.438898 -1.479179 -152.075797 -16.304516 107.092795 141.489168 -79.0923 106.900246 -114.092616 -22.03233 148.742458 -76.890495 35.352358 16.072418 56.455405 -4.777698 -32.472365 -79.331504 38.896278 55.70389 57.401141 4.778964 -7.916667 -150.228714 -41.989036 -166.10293 35.077949 -24.746585 -19.521962 -132.179064 -34.73912 -133.267501 115.432739 43.576979 -160.833631 158.163792 -10.759548 -133.504456 65.47309 -78.327563 -124.653751 -144.605761 6.408374 -89.614391 4.428412 3.18188 14.081793 5.968845 -61.781533 90.34155 27.645838 83.036988 -35.837257 -32.484909 -3.111733 8.814417 108.165343 -37.588886 167.017535 -16.274644 21.993825 -22.523989 -19.858947 43.354107 17.336172 -0.800909 25.424052 -19.446781 -22.648381 12.77763 -9.12369 77.233667 -23.934371 86.134486 -108.571331 26.00451 -42.392218 162.609244 15.351196 49.793911 64.109468 31.824928 34.050856 -116.366372 -22.27289 -146.774127 22.391815 3.465455 -0.0 -66.679335 -26.65592 -79.05396 -67.144111 39.76229 170.625939 -151.814002 16.17174 -7.494473
